<?xml version="1.0" encoding="utf-8"?>
<!-- Generator: Adobe Illustrator 21.0.0, SVG Export Plug-In . SVG Version: 6.00 Build 0)  -->
<svg version="1.1" id="Layer_1" xmlns="http://www.w3.org/2000/svg" xmlns:xlink="http://www.w3.org/1999/xlink" x="0px" y="0px"
	 viewBox="0 0 24 24" style="enable-background:new 0 0 24 24;" xml:space="preserve">
<style type="text/css">
	.st0{fill:url(#SVGID_1_);}
	.st1{fill:url(#SVGID_2_);}
	.st2{fill:url(#SVGID_3_);}
	.st3{fill:url(#SVGID_4_);}
	.st4{fill:url(#SVGID_5_);}
	.st5{fill:url(#SVGID_6_);}
	.st6{fill:url(#SVGID_7_);}
	.st7{fill:url(#SVGID_8_);}
	.st8{fill:url(#SVGID_9_);}
	.st9{fill:url(#SVGID_10_);}
	.st10{fill:url(#SVGID_11_);}
	.st11{fill:url(#SVGID_12_);}
	.st12{fill:url(#SVGID_13_);}
	.st13{fill:url(#SVGID_14_);}
	.st14{fill:url(#SVGID_15_);}
	.st15{fill:url(#SVGID_16_);}
	.st16{fill:url(#SVGID_17_);}
	.st17{fill:url(#SVGID_18_);}
	.st18{fill:url(#SVGID_19_);}
	.st19{fill:url(#SVGID_20_);}
	.st20{fill:url(#SVGID_21_);}
	.st21{fill:url(#SVGID_22_);}
	.st22{fill:#028387;}
	.st23{fill:#006A6E;}
	.st24{fill:#035454;}
	.st25{fill:url(#SVGID_23_);}
	.st26{fill:url(#SVGID_24_);}
	.st27{fill:url(#SVGID_25_);}
	.st28{fill:url(#SVGID_26_);}
	.st29{fill:#CCE1E2;}
	.st30{fill:#99C3C5;}
	.st31{fill:#66A6A8;}
	.st32{fill:url(#SVGID_27_);}
	.st33{fill:url(#SVGID_28_);}
	.st34{fill:url(#SVGID_29_);}
	.st35{fill:url(#SVGID_30_);}
	.st36{fill:url(#SVGID_31_);}
	.st37{fill:#FFFFFF;}
	.st38{fill:#737374;}
	.st39{fill:url(#SVGID_32_);}
	.st40{fill:url(#SVGID_33_);}
	.st41{fill:url(#SVGID_34_);}
	.st42{fill:url(#SVGID_35_);}
	.st43{fill:url(#SVGID_36_);}
	.st44{fill:url(#SVGID_37_);}
	.st45{fill:url(#SVGID_38_);}
	.st46{fill:url(#SVGID_39_);}
	.st47{fill:url(#SVGID_40_);}
	.st48{fill:url(#SVGID_41_);}
	.st49{fill:url(#SVGID_42_);}
	.st50{fill:url(#SVGID_43_);}
	.st51{fill:url(#SVGID_44_);}
	.st52{fill:url(#SVGID_45_);}
	.st53{fill:url(#SVGID_46_);}
	.st54{fill:#FEFEFE;}
	.st55{fill:#F7BC31;}
	.st56{fill:#3B3B3B;}
	.st57{fill:#66CEDB;}
	.st58{fill:#CE9232;}
	.st59{fill:#F6BF58;}
	.st60{fill:#00BFC8;}
	.st61{fill:#E74C3C;}
	.st62{fill:#34495E;}
	.st63{fill:#E22437;}
	.st64{fill:#EA2D48;}
	.st65{fill:#1BBC86;}
	.st66{fill:#27CC91;}
	.st67{fill:#85AAC6;}
	.st68{fill:#C7C8C9;}
	.st69{fill:#FF5347;}
	.st70{fill:#FF7171;}
	.st71{fill:#ED322E;}
	.st72{fill:#29ABE2;}
	.st73{fill:#36BBEA;}
	.st74{fill:#1584B5;}
	.st75{fill:#F95428;}
	.st76{fill:#666666;}
	.st77{fill:#4D4D4D;}
	.st78{fill:#E6E6E6;}
	.st79{fill:#CCCCCC;}
	.st80{fill:#B58126;}
	.st81{fill:#43B05B;}
	.st82{fill:#248436;}
	.st83{fill:#006A6E;stroke:#006A6E;stroke-width:0.5;stroke-miterlimit:10;}
	.st84{fill:#ED8A19;}
	.st85{fill:#26B99A;}
	.st86{fill:#3083C9;}
	.st87{fill:#006A6E;stroke:#006A6E;stroke-miterlimit:10;}
	.st88{fill:#D33B26;}
	.st89{fill:#F2AC30;}
	.st90{fill:#006A6E;stroke:#006A6E;stroke-width:1.5;stroke-miterlimit:10;}
	.st91{fill:#006A6E;stroke:#006A6E;stroke-width:0.9622;stroke-miterlimit:10;}
	.st92{fill:#006A6E;stroke:#006A6E;stroke-width:0.9542;stroke-miterlimit:10;}
	.st93{fill:#006A6E;stroke:#006A6E;stroke-width:0.4821;stroke-miterlimit:10;}
	.st94{fill:none;stroke:#006A6E;stroke-width:1.7;stroke-miterlimit:10;}
	.st95{fill:#E74C3C;stroke:#D33B26;stroke-width:0.3;stroke-miterlimit:10;}
	.st96{fill:#F7BC31;stroke:#F2AC30;stroke-width:0.3;stroke-linejoin:round;stroke-miterlimit:10;}
	.st97{fill:none;}
</style>
<circle class="st23" cx="12" cy="13.2" r="2.5"/>
<circle class="st23" cx="21.3" cy="6.8" r="2.5"/>
<circle class="st23" cx="2.8" cy="19.5" r="2.5"/>
<path class="st94" d="M19.2,20.2l-14.3,0c-1.9,0-3.5-1.6-3.5-3.5s1.6-3.5,3.5-3.5l14.3,0c1.9,0,3.5-1.6,3.5-3.5s-1.6-3.5-3.5-3.5
	L5,6.1"/>
<g>
	<path class="st95" d="M4.3,2.5c-2.1,0-3.7,1.7-3.7,3.7c0,2.1,1.7,3.7,3.7,3.7S8,8.3,8,6.2C8,4.2,6.3,2.5,4.3,2.5z"/>
</g>
<path class="st88" d="M1.4,6.2c0-1.9,1.5-3.5,3.3-3.7c-0.1,0-0.3,0-0.4,0c-2.1,0-3.7,1.7-3.7,3.7c0,2.1,1.7,3.7,3.7,3.7
	c0.1,0,0.3,0,0.4,0C2.8,9.7,1.4,8.1,1.4,6.2z"/>
<g>
	<g>
		<path class="st96" d="M19.7,16.4c-2.1,0-3.7,1.7-3.7,3.7s1.7,3.7,3.7,3.7s3.7-1.7,3.7-3.7S21.8,16.4,19.7,16.4z"/>
	</g>
</g>
<path class="st89" d="M16.8,20.1c0-1.9,1.5-3.5,3.3-3.7c-0.1,0-0.3,0-0.4,0c-2.1,0-3.7,1.7-3.7,3.7s1.7,3.7,3.7,3.7
	c0.1,0,0.3,0,0.4,0C18.3,23.6,16.8,22,16.8,20.1z"/>
<rect class="st97" width="24" height="24"/>
</svg>
