<?xml version="1.0" encoding="UTF-8" standalone="no"?>
<!-- Generator: Adobe Illustrator 25.2.1, SVG Export Plug-In . SVG Version: 6.00 Build 0)  -->

<svg
   width="24px"
   height="24px"
   version="1.1"
   id="Layer_1"
   x="0px"
   y="0px"
   viewBox="0 0 74.4 74.4"
   style="enable-background:new 0 0 74.4 74.4;"
   xml:space="preserve"
   preserveAspectRatio="xMinYMid meet"
   sodipodi:docname="monologo7.svg"
   inkscape:version="1.2.1 (9c6d41e410, 2022-07-14)"
   xmlns:inkscape="http://www.inkscape.org/namespaces/inkscape"
   xmlns:sodipodi="http://sodipodi.sourceforge.net/DTD/sodipodi-0.dtd"
   xmlns="http://www.w3.org/2000/svg"
   xmlns:svg="http://www.w3.org/2000/svg"><defs
   id="defs7596" /><sodipodi:namedview
   id="namedview7594"
   pagecolor="#ffffff"
   bordercolor="#666666"
   borderopacity="1.0"
   inkscape:showpageshadow="2"
   inkscape:pageopacity="0.0"
   inkscape:pagecheckerboard="0"
   inkscape:deskcolor="#d1d1d1"
   showgrid="false"
   inkscape:zoom="42.791667"
   inkscape:cx="12.245375"
   inkscape:cy="10.399221"
   inkscape:window-width="1825"
   inkscape:window-height="1205"
   inkscape:window-x="1724"
   inkscape:window-y="40"
   inkscape:window-maximized="0"
   inkscape:current-layer="g7591" />
<g
   id="g7591">
	<path
   d="m 62,3.8 v 0 H 12.4 C 5.5,3.8 0,9.4 0,16.2 v 0 33.6 c 0,6.9 5.6,12.3 12.4,12.3 h 9 l 0.660078,12.396884 C 23.912074,74.23778 51.157254,74.23778 52.357254,74.351996 L 52.9,62.1 h 9 c 6.9,0 12.4,-5.6 12.4,-12.4 V 16.2 C 74.3,9.3 68.9,3.8 62,3.8 Z m 7.1,11.7 v 34.6 c 0,3.5 -2.8,6.3 -6.3,6.3 v 0 h -9.2 c -10.32753,-0.0022 -22.172553,0.395005 -32.7,0 h -9.1 c -3.5,0 -6.3,-2.8 -6.3,-6.3 v 0 -34.6 C 5.5,12 8.3,9.2 11.8,9.2 v 0 h 50.8 c 3.5,0 6.5,2.8 6.5,6.3 z"
   id="path7583"
   sodipodi:nodetypes="scsscssccccssssssscccsscsscss" />
	<path
   d="m 19.22704,74.612506 c 0.114876,0 37.219556,0 37.219556,0 1.608252,0 2.986754,-1.2 2.986754,-2.6 0,-1.4 -1.378502,-2.6 -2.986754,-2.6 h -36.87493 c -1.608253,-0.1 -3.10163,1 -3.216505,2.4 0,1.5 1.263627,2.7 2.871879,2.8 z"
   id="path7585-1"
   style="stroke-width:1.0718" />
	
	<path
   d="M 70.798637,45.496008 3.4968841,45.278676 c 1.4955754,1.914434 -0.1179755,4.810427 -0.4,5.2 l 67.6017529,0.217332 c 0.274386,-2.44693 0.631521,-3.01277 0.1,-5.2 z"
   id="path7589"
   sodipodi:nodetypes="ccccc"
   style="stroke-width:1.0013;stroke-dasharray:none" />
<ellipse
   style="fill:#000000;fill-opacity:0.443262;stroke:#020200;stroke-width:3.1093;stroke-linecap:round;stroke-dasharray:none;paint-order:stroke fill markers"
   id="path12003"
   cx="37.344887"
   cy="53.789677"
   rx="0.47088605"
   ry="0.39844206" /><rect
   style="fill:none;fill-opacity:0.443262;stroke:#020200;stroke-width:3.1093;stroke-linecap:round;stroke-dasharray:none;paint-order:stroke fill markers"
   id="rect12057"
   width="14.923467"
   height="27.963388"
   x="28.977604"
   y="1.7386563"
   ry="5.5481915" /><rect
   style="fill:none;fill-opacity:0.443262;stroke:#020200;stroke-width:2.70553;stroke-linecap:round;stroke-dasharray:none;paint-order:stroke fill markers"
   id="rect12057-1"
   width="13.15392"
   height="24.020521"
   x="39.829468"
   y="9.0709467"
   ry="4.7658906" /></g>
</svg>
